<svg width="71" height="71" viewBox="0 0 71 71" fill="none" xmlns="http://www.w3.org/2000/svg">
<rect x="1.5" y="1.5" width="68" height="68" rx="34" fill="white" stroke="#FAFAFA" stroke-width="3"/>
<path d="M35.5107 9.75195C21.4582 9.75195 10.0107 21.4163 10.0107 35.7471C10.0107 50.0876 21.4582 61.752 35.5107 61.752C49.5728 61.752 61.0107 50.0876 61.0107 35.7471C61.0012 21.4163 49.5728 9.75195 35.5107 9.75195ZM35.4917 58.6298C33.2384 58.6298 31.0611 58.2905 29.0169 57.6602C28.9599 57.6117 28.8458 57.476 28.8363 57.4469C28.7317 57.2627 28.7982 57.0009 28.8743 56.807C28.9598 56.5839 28.9884 56.3512 29.0454 56.1185C29.1025 55.8664 29.1405 55.6046 29.2546 55.3816C29.5493 54.7223 29.6729 54.1018 29.2356 53.4521C29.1215 53.2776 29.1025 53.0158 29.1215 52.7928C29.1785 52.1044 29.4923 51.542 30.0723 51.1445C30.6237 50.776 30.6332 50.4366 30.1483 50.0003C30.0342 49.8937 29.9011 49.787 29.768 49.7191C29.2831 49.4573 29.15 49.0307 29.2356 48.5265C29.3211 47.9448 29.6254 47.4018 30.1864 47.3145C30.8044 47.2175 30.7758 46.9073 30.7854 46.4516C30.7949 45.9958 30.7663 45.4529 30.9945 45.0941C31.6411 44.0469 32.5538 43.2906 33.7233 42.8543C34.1796 42.6798 34.636 42.4665 35.0734 42.2629C35.3016 42.1562 35.5203 42.0399 35.7484 41.9429C36.0622 41.7974 36.3759 41.6714 36.6612 41.4775C36.8418 41.3417 36.9274 41.1381 37.089 40.9733C37.2507 40.8278 37.4884 40.8181 37.6785 40.8763C37.8116 40.9151 37.9067 41.0315 38.0398 41.0896C38.1729 41.1478 38.3155 41.1187 38.4487 41.0702C38.7339 40.9442 39.0477 40.7406 39.2283 40.4691C39.3709 40.2364 39.4185 39.9746 39.409 39.7031C39.3899 38.9856 39.8463 38.4717 40.4548 38.4426C41.2059 38.4038 41.8335 38.6656 42.2898 39.2765C42.7462 39.8873 43.4878 39.8776 44.0297 39.2959C44.2579 39.0438 44.6002 38.8498 44.933 38.7723C46.169 38.5105 47.3575 38.7917 48.565 39.0826C49.2496 39.2377 49.801 39.548 50.3049 40.0037C50.7233 40.4012 51.1226 40.8181 51.5219 41.2351C51.8547 41.5938 52.3491 41.6132 52.3491 41.2157C52.3491 40.0812 52.3016 38.9468 52.0163 37.8318C51.8832 37.2985 51.5029 36.8718 51.018 36.6488C50.8659 36.5713 50.7138 36.5034 50.5616 36.4258C50.4571 36.3773 50.381 36.2901 50.3144 36.1931C49.8486 35.4659 49.3637 34.7387 48.9453 33.9921C48.6506 33.4685 48.2132 33.2552 47.6522 33.2067C47.3575 33.1873 47.0532 33.197 46.7395 33.1873C46.2166 33.1873 45.7887 32.9546 45.4654 32.5571C45.2372 32.2856 45.0281 31.985 44.9045 31.6554C44.7428 31.2384 44.4861 31.1027 44.0678 31.1124C43.1645 31.1318 42.2803 31.1124 41.3866 31.1221C41.1964 31.1318 41.0063 31.1996 40.8446 31.2869C40.0555 31.7426 39.1903 31.9172 38.3631 31.6748C37.8021 31.5099 37.2222 31.4614 36.6422 31.316C36.1763 31.1996 35.7389 30.9572 35.3967 30.6082C35.235 30.4531 35.0829 30.2688 34.8927 30.1331C34.6741 29.9876 34.4649 29.9586 34.2177 29.9392C33.9325 29.9101 33.6377 29.881 33.362 29.7743C32.9531 29.6095 32.5633 29.3671 32.202 29.0956C31.1371 28.2714 30.985 27.6412 31.527 26.4195C31.546 26.371 31.565 26.3225 31.5745 26.2837C31.6696 25.7505 31.8407 25.2172 31.7932 24.713C31.7742 24.4415 31.3748 24.1991 31.1371 23.947C31.0896 23.8888 31.0231 23.8306 30.9755 23.7725C30.5667 23.2586 30.0437 22.9677 29.4447 22.7738C29.1785 22.6865 28.8648 22.5895 28.6936 22.3859C28.1897 21.7945 27.6478 21.8042 27.0393 22.1144C26.9347 22.1629 26.754 22.2114 26.64 22.2114C25.518 22.1726 24.3581 22.4538 23.2742 21.7848C22.5421 21.3388 21.7054 21.0382 20.9257 20.6794C20.6215 20.534 20.4313 20.2043 20.4313 19.8553C20.4313 19.7971 20.4218 19.7583 20.4408 19.6904C20.4408 19.6904 20.3172 19.1959 20.9923 18.5754C24.9 15.1624 29.9677 13.0874 35.5107 13.0874C47.8424 13.0874 57.8351 23.2877 57.8351 35.8538C57.8256 48.4393 47.8329 58.6298 35.4917 58.6298Z" fill="url(#paint0_linear_176_1184)"/>
<defs>
<linearGradient id="paint0_linear_176_1184" x1="17.4899" y1="54.1237" x2="54.2337" y2="18.0932" gradientUnits="userSpaceOnUse">
<stop stop-color="#00FF78"/>
<stop offset="0.1209" stop-color="#01D485"/>
<stop offset="0.2844" stop-color="#01A094"/>
<stop offset="0.4454" stop-color="#0276A1"/>
<stop offset="0.6004" stop-color="#0254AB"/>
<stop offset="0.7478" stop-color="#033CB2"/>
<stop offset="0.8845" stop-color="#032EB7"/>
<stop offset="1" stop-color="#0329B8"/>
</linearGradient>
</defs>
</svg>
