<svg width="42" height="42" viewBox="0 0 42 42" fill="none" xmlns="http://www.w3.org/2000/svg">
<path d="M20.5107 0C9.20764 0 0 9.30973 0 20.7476C0 32.1932 9.20764 41.503 20.5107 41.503C31.8214 41.503 41.0214 32.1932 41.0214 20.7476C41.0137 9.30973 31.8214 0 20.5107 0ZM20.4954 39.0111C18.6829 39.0111 16.9317 38.7402 15.2874 38.2372C15.2415 38.1985 15.1498 38.0902 15.1421 38.0669C15.058 37.9199 15.1115 37.711 15.1727 37.5562C15.2415 37.3782 15.2645 37.1925 15.3104 37.0067C15.3563 36.8055 15.3869 36.5966 15.4786 36.4186C15.7157 35.8924 15.8151 35.3971 15.4633 34.8786C15.3715 34.7393 15.3563 34.5303 15.3715 34.3523C15.4174 33.8029 15.6698 33.354 16.1363 33.0368C16.5799 32.7427 16.5875 32.4718 16.1975 32.1236C16.1057 32.0385 15.9986 31.9533 15.8916 31.8992C15.5015 31.6902 15.3945 31.3497 15.4633 30.9473C15.5321 30.483 15.7769 30.0496 16.2281 29.9799C16.7252 29.9026 16.7022 29.6549 16.7099 29.2912C16.7175 28.9275 16.6946 28.4941 16.8781 28.2078C17.3981 27.372 18.1323 26.7684 19.0729 26.4201C19.44 26.2808 19.8071 26.1106 20.1589 25.9481C20.3424 25.8629 20.5183 25.7701 20.7019 25.6927C20.9542 25.5766 21.2066 25.476 21.436 25.3212C21.5813 25.2129 21.6502 25.0504 21.7802 24.9188C21.9102 24.8027 22.1014 24.795 22.2543 24.8414C22.3614 24.8724 22.4379 24.9652 22.5449 25.0117C22.652 25.0581 22.7667 25.0349 22.8738 24.9962C23.1032 24.8956 23.3556 24.7331 23.5009 24.5164C23.6156 24.3307 23.6538 24.1217 23.6462 23.905C23.6309 23.3324 23.998 22.9222 24.4874 22.899C25.0916 22.868 25.5963 23.077 25.9634 23.5645C26.3305 24.0521 26.927 24.0443 27.3629 23.58C27.5464 23.3788 27.8217 23.224 28.0894 23.1621C29.0836 22.9532 30.0395 23.1776 31.0108 23.4097C31.5614 23.5336 32.0049 23.7812 32.4102 24.1449C32.7467 24.4622 33.0679 24.795 33.3891 25.1277C33.6568 25.4141 34.0545 25.4296 34.0545 25.1123C34.0545 24.2068 34.0162 23.3014 33.7868 22.4114C33.6798 21.9858 33.3738 21.6453 32.9838 21.4673C32.8615 21.4054 32.7391 21.3512 32.6167 21.2893C32.5326 21.2506 32.4714 21.181 32.4179 21.1036C32.0432 20.5232 31.6531 19.9428 31.3167 19.3469C31.0796 18.929 30.7278 18.7587 30.2766 18.7201C30.0395 18.7046 29.7948 18.7123 29.5424 18.7046C29.1218 18.7046 28.7777 18.5188 28.5177 18.2016C28.3341 17.9849 28.1659 17.745 28.0665 17.4819C27.9364 17.1491 27.73 17.0407 27.3935 17.0485C26.667 17.064 25.9557 17.0485 25.2369 17.0562C25.0839 17.064 24.931 17.1181 24.801 17.1878C24.1662 17.5515 23.4703 17.6908 22.8049 17.4973C22.3537 17.3658 21.8872 17.3271 21.4207 17.211C21.046 17.1181 20.6942 16.9247 20.4189 16.6461C20.2889 16.5222 20.1666 16.3752 20.0136 16.2669C19.8377 16.1508 19.6695 16.1276 19.4706 16.1121C19.2412 16.0889 19.0041 16.0657 18.7823 15.9805C18.4535 15.849 18.1399 15.6555 17.8493 15.4388C16.9928 14.781 16.8705 14.278 17.3064 13.3029C17.3217 13.2642 17.337 13.2255 17.3446 13.1946C17.4211 12.769 17.5587 12.3433 17.5205 11.9409C17.5052 11.7242 17.184 11.5307 16.9928 11.3295C16.9546 11.2831 16.9011 11.2367 16.8628 11.1902C16.534 10.7801 16.1134 10.5479 15.6316 10.3932C15.4174 10.3235 15.1651 10.2461 15.0274 10.0836C14.6221 9.61154 14.1862 9.61928 13.6967 9.86692C13.6126 9.90561 13.4673 9.9443 13.3756 9.9443C12.4731 9.91335 11.5401 10.1378 10.6683 9.6038C10.0795 9.24782 9.40647 9.00791 8.77938 8.72158C8.53465 8.6055 8.38171 8.34238 8.38171 8.06378C8.38171 8.01735 8.37405 7.9864 8.38934 7.93223C8.38934 7.93223 8.28994 7.53755 8.83291 7.04227C11.9761 4.31823 16.0522 2.66213 20.5107 2.66213C30.4295 2.66213 38.4671 10.8033 38.4671 20.8327C38.4595 30.8776 30.4219 39.0111 20.4954 39.0111Z" fill="url(#paint0_linear_175_382)"/>
<defs>
<linearGradient id="paint0_linear_175_382" x1="6.01578" y1="35.4146" x2="35.3459" y2="6.43023" gradientUnits="userSpaceOnUse">
<stop stop-color="#00FF78"/>
<stop offset="0.1209" stop-color="#01D485"/>
<stop offset="0.2844" stop-color="#01A094"/>
<stop offset="0.4454" stop-color="#0276A1"/>
<stop offset="0.6004" stop-color="#0254AB"/>
<stop offset="0.7478" stop-color="#033CB2"/>
<stop offset="0.8845" stop-color="#032EB7"/>
<stop offset="1" stop-color="#0329B8"/>
</linearGradient>
</defs>
</svg>
